/* XPM */
static char *_66965336b6049ace3e54a92babeed9e[] = {
/* columns rows colors chars-per-pixel */
"64 64 39 1 ",
"  c #FF0000",
". c #FE0C01",
"X c #FE1302",
"o c #FE1B03",
"O c #FE2304",
"+ c #FE2C05",
"@ c #FE3305",
"# c #FE3C06",
"$ c #FE4307",
"% c #FE4807",
"& c #FE4B08",
"* c #FD5409",
"= c #FD5B0A",
"- c #FD640B",
"; c #FD6B0B",
": c #FD730C",
"> c #FD7B0D",
", c #FD830E",
"< c #FD8B0F",
"1 c #FD910F",
"2 c #FD9510",
"3 c #FC9B10",
"4 c #FDA411",
"5 c #FCAC12",
"6 c #FCB313",
"7 c #FDBB14",
"8 c #FDC415",
"9 c #FDCC16",
"0 c #F7D415",
"q c #FCD316",
"w c #F7DD16",
"e c #FCDC17",
"r c #FDDF18",
"t c #FAE417",
"y c #FCE418",
"u c #FCEB19",
"i c #FDF31A",
"p c #FBF81A",
"a c None",
/* pixels */
"aaaaaaaaaaaaaaaaaaaaaaaaaaaaaaaaaaaaaaaaaaaaaaaaaaaaaaaaaaaaaaaa",
"aaaaaaaaaaaaaaaaaaaaaaaaaaaaaaaaaaaaaaaaaaaaaaaaaaaaaaaaaaaaaaaa",
"aaaaaaaaaaaaaaaaaaaaaaaaaaaaayyyyyyaaaaaaaaaaaaaaaaaaaaaaaaaaaaa",
"aaaaaaaaaaaaaaaaaaaaaaaayyryq8655689eyyuaaaaaaaaaaaaaaaaaaaaaaaa",
"aaaaaaaaaaaaaaaaaaaaattw6>%O.      .o#;4qyuaaaaaaaaaaaaaaaaaaaaa",
"aaaaaaaaaaaaaaaaaaauu7=o        @.      X&3yuwaaaaaaaaaaaaaaaaaa",
"aaaaaaaaaaaaaaaaauu2@          .7@         o>euaaaaaaaaaaaaaaaaa",
"aaaaaaaaaaaaaaayu5+            #1-           o,uuaaaaaaaaaaaaaaa",
"aaaaaaaaaaaaaaue*              >o>X            @7uaaaaaaaaaaaaaa",
"aaaaaaaaaaaaau5o          ..oO&> &:Oo...        .>ieaaaaaaaaaaaa",
"aaaaaaaaaaaqi,           .,5;;:O .-:;15o          *uwaaaaaaaaaaa",
"aaaaaaaaaa0i-             X>*       +<+            #yyaaaaaaaaaa",
"aaaaaaaaaai-                ;:.   .&,X              @ywaaaaaaaaa",
"aaaaaaaaai;                  :&   X1                 #iqaaaaaaaa",
"aaaaaaaau2                   ;O o  :.                 =iaaaaaaaa",
"aaaaaaae8.                  .;.-1>o*#                  <uaaaaaaa",
"aaaaaaqu+                   +2>* @><-                  .9eaaaaaa",
"aaaaaau>          ##        =2o   .;<       .*=.        #uaaaaaa",
"aaaaaq9.        o45o        X       ..       .58#        3yaaaaa",
"aaaaau=       o@0eo            .#             Xqy*#      Ouaaaaa",
"aaaaw9.      ;:7u#             o65@            +w8:1      2yaaaa",
"aaaat;      =7;u;O               -81.          @&e;7>     @uaaaa",
"aaaayo     X9<<;,$                X<8$         @3=,<e@     7eaaa",
"aaay4     o;t=$54                   &9-         <q*&y>$    ;yaaa",
"aaay=     >:q&88X             ..     O9-         2y>9-3.   Oyaaa",
"aaayO    +7=807O              >2.     o9@        o,ww=8$    9eaa",
"aaw9.    =9*t>-#             :323X     *5        @,&q-9:    1yaa",
"aat4     ;e;>;8.            &56>:7@     7#        72*-q,    -yaa",
"aat>     ;u&-i;            +<9:2,:6#    ;<        #u2+q<    $raa",
"aat-    X;y-q5.           O>9><,,3=5:.  @5         :i,q>@   +raa",
"aae&    *%87q-.           :9:4:>2><;4;X o6.       X#3eq&>   oraa",
"aae$    <#1u;2o           .;7;2>:3;6;,1+ 5o       .2@q5#5   Xqaa",
"aar#    3>&6&7.             =4><<;3><:>1&5.        4::,;7   Xqaa",
"aar#    ,0$&55               #3=12-3;2,=05         -r&&83   Xqaa",
"aaw%    *p=@u-       .+ O&    .65>1-<><;76&.       +u:$p;   Xraa",
"aat=    X04>u@      .<2,57,    .48:1;>>3u-2>o      +852y@   Oraa",
"aay:    o<056&O     >& 66O44X    >0:<-<81>;1,O    o->0w<#X  #raa",
"aay3    -+9y:;=    $0&=-@< ,9:X   &0,0t;2;4:;4+   #2#u8o<.  =yaa",
"aae8    ,>@i*2>   O4o>0.--  +274>;:7t8><-3-2>-0-. *8@w+>4   <yaa",
"aaaro   #u*-;62  .3@  #61     o&:,:#+>=<2;<-,>18X ;w**-p&   7raa",
"aaay&    5u=o66o :-   .4o             3>:<=>628o +,tO=i5   oraaa",
"aaay1    +wt#56=$2    2$               =9#7528# #:,9=yqO   *uaaa",
"aaaeq.    *0047$6-<o ;>                 @6268&  7*1799&X   4yaaa",
"aaaau*   .=+7w9@0*#3,2                   &:.;  %t@7u4O:X  ouaaaa",
"aaaae6    =1X>u=48 .*.                         49&0=o5:   >yaaaa",
"aaaaau#    59$&->u=o                         O&02#%-e5   Xr0aaaa",
"aaaaae6    .6p5=@w,<&                       #3;t#=7p5.   >yaaaaa",
"aaaaaai*    .1uu227&w*                     $t-365pr>.   ou0aaaaa",
"aaaaaaeeX    X-2q0u>,i=                   &u4;uq8>=+    5yaaaaaa",
"aaaaaaay3    .--#&-<@2t:.                ;y4@;*##:>X   -uaaaaaaa",
"aaaaaaaai-    .194,>>;5y8:X  XOX  O+o X*7p8>,349t2X   @u0aaaaaaa",
"aaaaaaaaqi$     &6wuuy95,;:<96>658<2w6<:->5qy083$    oqraaaaaaaa",
"aaaaaaaaawu@     X=%@+o+;5tu:$32$;6=#8p92$oo+#=O    X8yaaaaaaaaa",
"aaaaaaaaaary@     %32250uu6@*9;   @82O:wuu0876=.   X7uaaaaaaaaaa",
"aaaaaaaaaaaru&     o:6872*X,t#     X69+O;242;o    O9uaaaaaaaaaaa",
"aaaaaaaaaaaawi:        .  :t+        68          &ytaaaaaaaaaaaa",
"aaaaaaaaaaaaaqi5O         oO         .o        .,iyaaaaaaaaaaaaa",
"aaaaaaaaaaaaaaauy;.                           &9uaaaaaaaaaaaaaaa",
"aaaaaaaaaaaaaaaaru9=.                       $6uuaaaaaaaaaaaaaaaa",
"aaaaaaaaaaaaaaaaaayy9>+                  o-7uyaaaaaaaaaaaaaaaaaa",
"aaaaaaaaaaaaaaaaaaaayuy7>#o          X@-5ryyaaaaaaaaaaaaaaaaaaaa",
"aaaaaaaaaaaaaaaaaaaaaaayyye841>::><47quyuaaaaaaaaaaaaaaaaaaaaaaa",
"aaaaaaaaaaaaaaaaaaaaaaaaaaayyyyyuyyyyaaaaaaaaaaaaaaaaaaaaaaaaaaa",
"aaaaaaaaaaaaaaaaaaaaaaaaaaaaaaaaaaaaaaaaaaaaaaaaaaaaaaaaaaaaaaaa"
};
