/* XPM */
static char *_ef2197de8834c27918c217adc092d15[] = {
/* columns rows colors chars-per-pixel */
"128 128 41 1 ",
"  c #FF0000",
". c #FF0B01",
"X c #FF1302",
"o c #FE1B03",
"O c #FE2304",
"+ c #FE2B05",
"@ c #FE3305",
"# c #FE3B06",
"$ c #FE4307",
"% c #FE4807",
"& c #FE4708",
"* c #FE4B08",
"= c #FE5309",
"- c #FE5B0A",
"; c #FD640B",
": c #FD6C0B",
"> c #FD730C",
", c #FD7B0D",
"< c #FD840E",
"1 c #FD8C0F",
"2 c #FD920F",
"3 c #FD9510",
"4 c #FD9C10",
"5 c #FDA411",
"6 c #FCAB12",
"7 c #FCB313",
"8 c #FCBB14",
"9 c #F3C715",
"0 c #FCC415",
"q c #F6CC15",
"w c #FBCC15",
"e c #F7D116",
"r c #FCD416",
"t c #FDDC17",
"y c #FDDF18",
"u c #FDE017",
"i c #FDE218",
"p c #FCEC19",
"a c #FCF31A",
"s c #FCF91A",
"d c None",
/* pixels */
"dddddddddddddddddddddddddddddddddddddddddddddddddddddddddddddddddddddddddddddddddddddddddddddddddddddddddddddddddddddddddddddddd",
"dddddddddddddddddddddddddddddddddddddddddddddddddddddddddddddddddddddddddddddddddddddddddddddddddddddddddddddddddddddddddddddddd",
"dddddddddddddddddddddddddddddddddddddddddddddddddddddddddddddddddddddddddddddddddddddddddddddddddddddddddddddddddddddddddddddddd",
"dddddddddddddddddddddddddddddddddddddddddddddddddddddddddddddddddddddddddddddddddddddddddddddddddddddddddddddddddddddddddddddddd",
"ddddddddddddddddddddddddddddddddddddddddddddddddddddddddddqqwqqrrqqqrqdddddddddddddddddddddddddddddddddddddddddddddddddddddddddd",
"ddddddddddddddddddddddddddddddddddddddddddddddddddderqwyiiiiiyiiiiiiiiiyrwrqdddddddddddddddddddddddddddddddddddddddddddddddddddd",
"ddddddddddddddddddddddddddddddddddddddddddddddderryiyyiiiiyrrww00wwrttyiiiyiitredddddddddddddddddddddddddddddddddddddddddddddddd",
"ddddddddddddddddddddddddddddddddddddddddddddeeiiyyiyr84<;%#+OXXXXXoO@$=>260tiiyyirredddddddddddddddddddddddddddddddddddddddddddd",
"ddddddddddddddddddddddddddddddddddddddddderiytuuw5>%O.                    X@-18tyyyirrdddddddddddddddddddddddddddddddddddddddddd",
"dddddddddddddddddddddddddddddddddddddddrritiy01*X                             .+:6rityireddddddddddddddddddddddddddddddddddddddd",
"dddddddddddddddddddddddddddddddddddddryyyiq2$.                  -O                O:7yytirrddddddddddddddddddddddddddddddddddddd",
"dddddddddddddddddddddddddddddddddddeiyyy8;o                     0:                   #2riyireddddddddddddddddddddddddddddddddddd",
"dddddddddddddddddddddddddddddddddryyyi6*.                      @p7                     O,ritirdddddddddddddddddddddddddddddddddd",
"ddddddddddddddddddddddddddddddderiti6*                         17q@                      o,rutirdddddddddddddddddddddddddddddddd",
"ddddddddddddddddddddddddddddddriri0-                          .r@13                        O2ytytedddddddddddddddddddddddddddddd",
"dddddddddddddddddddddddddddderyyt,X                           -w $r.                         #7urirddddddddddddddddddddddddddddd",
"dddddddddddddddddddddddddddeiri7@                             7> .0-                          .>tyirdddddddddddddddddddddddddddd",
"ddddddddddddddddddddddddddrity>.                             +tO  ,7                            @7iriedddddddddddddddddddddddddd",
"dddddddddddddddddddddddddryi0$                               <7   OtO                            .1irieddddddddddddddddddddddddd",
"dddddddddddddddddddddddqiti5o                      +##=-;,<24u*    5q31<>;-%@$X                    -tyiedddddddddddddddddddddddd",
"ddddddddddddddddddddddqiti<.                       $rp067542<:.    +,124676ea5o                     #wtytddddddddddddddddddddddd",
"dddddddddddddddddddddqiri:                          O88X                  *y<                        O8ytrdddddddddddddddddddddd",
"ddddddddddddddddddddqity-                            .5e@                >i-                          X7itrddddddddddddddddddddd",
"dddddddddddddddddddqity=                               ,p-             .5t#                            .5ittdddddddddddddddddddd",
"ddddddddddddddddddqiru=                                 =i<           O00o                              .6iyeddddddddddddddddddd",
"ddddddddddddddddddiru-                                   @q5X        #e3.                                X7yiedddddddddddddddddd",
"dddddddddddddddddtti:                                     @uo        >w                                   o0tiqddddddddddddddddd",
"ddddddddddddddddrtu1                                      ;8         +wX                                   +rriqdddddddddddddddd",
"dddddddddddddddqyi5.                                      6,         .q*                                    $irydddddddddddddddd",
"ddddddddddddddqit0o                                      .w#   X3;    41                                     :itrddddddddddddddd",
"ddddddddddddddtry#                                       #e.  =e7q6O  -0                                      4iiqdddddddddddddd",
"dddddddddddddqii>                                        ,6 o5y; o5y: XrO                                     owtidddddddddddddd",
"ddddddddddddqiy7.                                        6:=t6o    *r7O7-                                      *iteddddddddddddd",
"ddddddddddddrtt+                                        Xwwq-       X2tr1                XO                     2iiqdddddddddddd",
"dddddddddddqii,                      -;.                *p3X          $0q.               X43#                   owrydddddddddddd",
"dddddddddddit0.                   .=8t@                 :=             .,@                .0p5$                  ;iyqddddddddddd",
"ddddddddddqyi=                   =8pr+                  .                .                 X0py3o                .7yiddddddddddd",
"ddddddddddit6                  .1iyi$                                                       @rri0@                &iyqdddddddddd",
"dddddddddqyy&                X.5iri>                           XX                            :iwywO-=              6yydddddddddd",
"dddddddddiy6               +5#,iei6                            5r;.                          .3iwi6o04.            $yywddddddddd",
"ddddddddqyi%              =p-#irteO                           .2ia0-.                          7iqp=op7X            6tyddddddddd",
"ddddddddry7.             ;p5.0tri$                              @3ip6$                        OX8irw ,a7.           =iyqdddddddd",
"dddddddqii;             $ii#%iei-X=                               #6pi2o                      :&X0ii=+yi<           .0trdddddddd",
"dddddddwywX            .0yw.3ii- 6-                                 -0aq=                     #ro.7p5.0ty@           >iidddddddd",
"dddddddyi1             ;it4.ry*.5r.                                  X1ip1.                    7t%.4po1yi1+.         Otyqddddddd",
"ddddddqiy$           o@3yi;$r+o7s:                                     $qa8+                   %pi>.1:=it6*>          5yrddddddd",
"ddddddqy0.          .1@7ri$-o&ep8.                                      X4pr$                   2ii7+o+trqX6#         ;iiqdddddd",
"ddddddii<           -5XwteX >itt@                                         ,pi=                  .7iyr= 8teX,8.        Oriqdddddd",
"dddddqii%          .q:Oty3.4itu-                                           ;iu&                  X8iti=>irX-a*         6yrdddddd",
"dddddqywX          -s=+yi;2iru;                             O3o             -pt+                  .5ire4rro;a5         >iidddddd",
"dddddry5          .7p=Ot04tty=                              7s7.             >p8.                 O+:ittero;pqo        #yiqddddd",
"dddddii>          Ori;.rwqy0+*#                           X%;r17=             4a:                 +8.%rtrtX>uy*        X0iqddddd",
"ddddqiy$          %ui,.0ei6.@to                          .5p>o3srO            OtrX                 70.+wyro>yi>         5yrddddd",
"ddddqirO          ;iy3.8p4 =u6                           o6ii2+7:33X           ,s>                 -s8XOwyo,yy1         <itddddd",
"ddddqy7.          :ut7 07 :ui=                          @q;<p6;O*ap-X          Oy0.                owi0OOrO<yy4         -yiddddd",
"ddddri4           >ur8O6.>it8.                          6pt>=<irO,22w#          3p&                 ,itrO%+<yy4         @tiqdddd",
"ddddti,           >urw++=iri:                         .>#6ip;@i6==Oya<X         *p1                 XwrywO 2yy4         oriqdddd",
"ddddyi;           ;urrXoyry8.                         1a7@1t-<=$rp-@1*r>        or8.                 *iri7.2yy<oO       .8iqdddd",
"ddddiy*         o@@irwo4ury@                         O;tiq%o4s7o6r><.3a0%X       7yO                  <iqi-1yi-@,        6irdddd",
"dddqit#         *:.er8-tri:                         -i:$wiy=%t>>:#8s4.11r7o      1p#                 oX6tt63ty+$6        4iqdddd",
"dddwit+         >1 5i74yy5@>                        6pi1@7p,*O;si@;r=<@;pw+O     :s-                 ;-ortw0y8 ;r.       1irdddd",
"dddqiwO         25 =p88trO31                        X3pr=#=<s3o74>2+:atO-#1y=    ;p;                 *w =irru, 2yo       <irdddd",
"dddeiwo         5w.Xerri-Oa>                          ><rw+,p3*@@is:@055>oes<@   ;p;                 +p- 3yry# 8yO       >iydddd",
"dddwi0X         5p& 2yt6 3a-                           %ip5X$-pr+:7;7&;pa#o>:i2. :s-                 Xww.orrq.OyrO       >iydddd",
"dddriwX         5p4 %ut+Oyy@                            $6;r;$y8;-.8s6o4<$5o1a7oX,a%                  6p< ,p6 ,irO       :iydddd",
"dddri0X         4irO.t3 1iro                              3pa:X%ep;+7-6,.8s6.:@608rO                  1iy@Xi> 0tqX       :iydddd",
"dddqywX         1ui, 7&Xrt0.                              X5e+:@5r:<X,ai+-0-5*@iyt7                   -iy7 5@=ur7.       >iydddd",
"dddwywo         :ur0.-.,uy4                                 o>a0#o7s5.2;,6+>sio#0tr>                  +tri@O.7ty3        ,iydddd",
"dddqirO         &yei: Xqri:                      OO          ;rur%;t;1$Ois>O7:=26yp2o.                .8ri3 #yeu>        <irdddd",
"dddqit@         X0rt8 =uet+               +56* .2ii<          #eii>X>aio=4%8-orui4:@w7o                1irr.<yrt@        3irdddd",
"dddqiy$          2iryO,ut8.              oy86p,3p80p>          +7ii1#0<-,.5s0X2yr0+=pi*+             .&*irr#7tt8..       5iwdddd",
"ddddii=        ..@yru;3ty<X#            .8q. -tp7 +tp,          .4pi6OOya>X6*1qrriw.-;3y=            #1.wrr:wri-o%      .7iqdddd",
"ddddyi>        .= 6yy13yu$+5            ,p+   7ir- @ra5O          ,ii0#<0&3O=pi,$8*:>ors>o           >5 4yq6rt0.;;      X0iqdddd",
"ddddri1         1 #yr65i0.%e.          &a;   ,i#,a; O6ar;.         -tir=.2pw0t<:0#@ps-O:#t3.         58 -irrei# 6=      +riqdddd",
"ddddqi6         7= 2i00y3 >p@         owi0# &a;  10  .,ya7*.        #qiy;>try5Xws2O36-5X<sr+X       .09.orrri> @i@      $iiqdddd",
"ddddwi0X        40.Xwyei> 3p=         6w#5p,q3   58    @5pp8:+       o7tyqwwyi%+4-w,o8s6 >*4w@      OetO 8ry6 .0ro      :iiddddd",
"ddddqit@        ,a, @yri= 8p,        >p#  ,pp+  -p%      &5uay82:===:18iirw%56;3X1sw.;0#<=+iir*     #ti= 6iwX 3p6       3irddddd",
"dddddii-        *uu; %yi$Xri3       #s>    $0r#Op1         +>7rpaaaaape31tp1 ows2.1&<7O=ap+@wii>    =ui, 6p$ <ii,      .8iqddddd",
"dddddty1        oqty- :a&ott7      Xr6      X5tr7.            o#-:>:-#o  ;8X;-;w-5#Ops:O73%1@7a4    :it3 0, ,iry+      +rywddddd",
"dddddwy8.        1iry= 7*Otr0.     4to        7uO                         .$ai> 2si+%3@7;.qp6$,X   .,yt5., :iei3       =iiqddddd",
"dddddqit+        Orrri$oO@tewO+   ;a$        *p-                           +8a1o%03O: 3ay>>ea6    ;+<yt6  ;irrt+       1itdddddd",
"ddddddii;         ,irry@ #trrO<@ Ou,        Oi2                             X:@q6@.7a4@6ii<;q#   @8.4yy3 =irei:       .0yqdddddd",
"ddddddry6         .7ywtrOorry+&q $iX       .8w.                               -pp6 1ii7@1ii5.   .01 6yi:Otrri4        #yiqdddddd",
"ddddddwirO         owywt8O0ry$.i1ou1.      ,p+                                 ;r*<=-tiw#:p:    ,a= 7ty%5ywi7..       <yiddddddd",
"ddddddqii:         XOqiri33ii; 7p#*p8O    $s;                                   X;ay;*rit;@    +ty+.wr71yei7.&o      .0twddddddd",
"dddddddrt7         ;Oo8irr3wi< 1p8 +qi-  Xy4                                     +8ia&+0a6     3uq.+tr8wri3.+3       %iiqddddddd",
"dddddddqyt#        @7 .3it0wy5 ;uu- .2a2#7rX                                      .66. o1o    +ty7 -ireyt> Xr=       4iydddddddd",
"ddddddddiy1         65  -rirr0 *uy7   =rpw@                                         .         ,uy3 1iri7+ o0w.      +ryqdddddddd",
"ddddddddqyro        @p6o O6iry+Otry#   X+.                                                   .0ti: 8it>  $qp-       <iiddddddddd",
"ddddddddqii,         1pw=  ;rp, 0ri1                                                        .&yqi@+p6+ o<ti5.      owteddddddddd",
"dddddddddrrro        X0iu6# X3iX1yr0+-                                                     >&<ut0.2: X>qutwo       >iiqddddddddd",
"dddddddddqii,         @rryy4# =%$iei$<5.                                                  37.0ri, ..>wirtt#       owtrdddddddddd",
"ddddddddddrtrO         %ytwyy6#  0ty1 t7o                                               .4a+#uer..;wirwyr$        <iiqdddddddddd",
"ddddddddddqiy1          $eyrwyi4X#urr.=s0+                                             o7p6 4ui=@8irrri8@        +trrddddddddddd",
"dddddddddddrry#          +8irwriq*1yi> 8ie#                                           O8uu#Ott4>ryerti2X         4yiqddddddddddd",
"ddddddddddddit7.          .>tyrrry35rr.%itr$                                         +0yy6 3u86yrrti0%X         =iyqdddddddddddd",
"ddddddddddddeyi>          o+O2riytt80i1 6yrt*                                       +0yeio@yrryyit7: &:        Xwtyddddddddddddd",
"dddddddddddddtrt+         .1; X;40eiiup$Xttry-                                     #rtrp;Xtptq74:+  :8X        2iyqddddddddddddd",
"dddddddddddddqiy7.         .87@   o#;20t@*ttei:                                   ;ttti<.53=O.   X-0tO        =utrdddddddddddddd",
"ddddddddddddddqyi1          X0p7,$o.   o+ +7tti5#                               +4irr6$ .o.X+$:<6qpr+        Ortiddddddddddddddd",
"dddddddddddddddrti-          .5piir0864<>:%%17ryy6;O                        .O*2tuew4;:157qrtyiyui6o        .7yiqddddddddddddddd",
"ddddddddddddddddirt@           >rurtttyyiiyt00wrypp0:. O*;>,<,:#.X*>3443<;@.%10iuuyrwyiyyrrrrwtir:.         3iyedddddddddddddddd",
"ddddddddddddddddqiywO           +2riyrrrerryiiyw5:+X@>6rupai84eywquq57yaiyt81@.X*16wyiiytyyyiy8,o          ,ittddddddddddddddddd",
"dddddddddddddddddqiy8X            O-48wrqq062:#.  %4eitruw>XX;ru70i0* X>ryrtuy6;.  X#-,25552:@o           ;irydddddddddddddddddd",
"ddddddddddddddddddeiu6.            #. .XoX.    O,0uyreri3X =0a8% .-wp7$ o6irertiw<@          ;;          =yriddddddddddddddddddd",
"dddddddddddddddddddryi6.           =0<@.   X@;5rutreruw= O5pi,.    o5pi1. :rurwerir7<;*$$*;2e1.         =yriqddddddddddddddddddd",
"ddddddddddddddddddddrti6X           @0pw777wtyyrrqrtu3o -rp0&        :yp8# +4uyrrrrtuuuuyiar=          =ytiqdddddddddddddddddddd",
"dddddddddddddddddddddrti7o           .:wpitrrerrryy6$  <ip6o          &ept>  %5tiitrrrtyiw,X          ;irieddddddddddddddddddddd",
"ddddddddddddddddddddddtyy0+            X;6eyiiye81#  X6ui4.            +0ui4.  +;3700074-o           ,iriedddddddddddddddddddddd",
"dddddddddddddddddddddddryyr%              o@%-$o.   O8ui2.              O0yu7O     .X.             .3iriqddddddddddddddddddddddd",
"ddddddddddddddddddddddddeiry>                      .7pi3                 +0ya>                    +7utyddddddddddddddddddddddddd",
"dddddddddddddddddddddddddritu5o                     #w6                   o82.                   -eyirdddddddddddddddddddddddddd",
"ddddddddddddddddddddddddddeytyw=                     X.                    .                   o2itirddddddddddddddddddddddddddd",
"ddddddddddddddddddddddddddddrity3o                                                            =0itiedddddddddddddddddddddddddddd",
"dddddddddddddddddddddddddddddrytiw;.                                                        +5ityrdddddddddddddddddddddddddddddd",
"dddddddddddddddddddddddddddddddriri7=                                                     o<rytirddddddddddddddddddddddddddddddd",
"ddddddddddddddddddddddddddddddddrtyty6%                                                 o,witirddddddddddddddddddddddddddddddddd",
"ddddddddddddddddddddddddddddddddddriyyi6-.                                            +<eitiredddddddddddddddddddddddddddddddddd",
"ddddddddddddddddddddddddddddddddddddryyyi0>+                                       .=4ritirrdddddddddddddddddddddddddddddddddddd",
"ddddddddddddddddddddddddddddddddddddddryytir6;O                                 .$10iyyiredddddddddddddddddddddddddddddddddddddd",
"ddddddddddddddddddddddddddddddddddddddddrriyyir6>$X                         .+-20yitiyrddddddddddddddddddddddddddddddddddddddddd",
"dddddddddddddddddddddddddddddddddddddddddddrriyyuyw6<-#o.             .X+%:38riyyiyreddddddddddddddddddddddddddddddddddddddddddd",
"dddddddddddddddddddddddddddddddddddddddddddddeeriiyyiitw8641<>>::>,<357wriiiyiitredddddddddddddddddddddddddddddddddddddddddddddd",
"ddddddddddddddddddddddddddddddddddddddddddddddddderetiiiiiiiiiiiiiiiiiiiiiyrrqrddddddddddddddddddddddddddddddddddddddddddddddddd",
"ddddddddddddddddddddddddddddddddddddddddddddddddddddddqrrwerryyyyytrrweqeedddddddddddddddddddddddddddddddddddddddddddddddddddddd",
"dddddddddddddddddddddddddddddddddddddddddddddddddddddddddddddddddddddddddddddddddddddddddddddddddddddddddddddddddddddddddddddddd",
"dddddddddddddddddddddddddddddddddddddddddddddddddddddddddddddddddddddddddddddddddddddddddddddddddddddddddddddddddddddddddddddddd",
"dddddddddddddddddddddddddddddddddddddddddddddddddddddddddddddddddddddddddddddddddddddddddddddddddddddddddddddddddddddddddddddddd"
};
