/* XPM */
static char *_7ade901ee1c44fbecdc6d4ebfd557df[] = {
/* columns rows colors chars-per-pixel */
"32 32 34 1 ",
"  c #FE0000",
". c #FE0C01",
"X c #FE1402",
"o c #FE1B03",
"O c #FE2404",
"+ c #FE2C05",
"@ c #FE3305",
"# c #FE3B06",
"$ c #FD4307",
"% c #FD4708",
"& c #FE4B08",
"* c #FD5309",
"= c #FE5C0A",
"- c #FE640B",
"; c #FD6C0B",
": c #FE750C",
"> c #FC7C0D",
", c #FC850E",
"< c #FC8B0F",
"1 c #FC920F",
"2 c #FC9510",
"3 c #FC9C10",
"4 c #FCA311",
"5 c #FCAD12",
"6 c #FCB213",
"7 c #FCBD14",
"8 c #FBC214",
"9 c #FBCB15",
"0 c #FBD516",
"q c #FBDA17",
"w c #FBE317",
"e c #FAE418",
"r c #FBED18",
"t c None",
/* pixels */
"tttttttttttttttttttttttttttttttt",
"tttttttttttttttq0qtttttttttttttt",
"ttttttttttt7<-&@@#*:30tttttttttt",
"ttttttttt5-o    *    @>9tttttttt",
"ttttttt0:.     O=@     +2ttttttt",
"tttttt8#     $-#.@=*     :wttttt",
"ttttt7+      .$o .%X      -wtttt",
"tttt9@        o#+@O        :tttt",
"tttt=         $=@**    .    3ttt",
"ttt3    &;.   o.  o   .:=   +9tt",
"ttw$  X>6o      =*     X6<O  ,tt",
"tt3   <3>        $:O    :22X @qt",
"tt;  *52#      o  o>O   @36-  4t",
"tw$ X23,      X3:. X;    >33X ,t",
"t7O X41-     .,3<>o =O   *24+ -t",
"t6. @47O     %6,,<,O@#   .46% &t",
"t5. ->2@      &1,,,>>+   O<>: %t",
"t6. ;<1X   +$O @3<>>7*    22: &t",
"t7o @83o  =-<>% O1<43,-. o39% =t",
"tq# &11= #===X%;*;63>>><X&<,- >t",
"tt- @6;<O% %$   oX *<>4<X,>6+ 3t",
"tt3  ;74>%#&        %31.*48; +0t",
"tt0@ #<,2&#          . +3><% >tt",
"ttt1  ,413#           $333,.o8tt",
"ttte&  ,431-         =3<4<  1ttt",
"tttt7O o,318>+@@###+:814,O -wttt",
"ttttt5X X:1>473<-,275>1>X &qtttt",
"tttttt6O .*1<-,o .::;<=. =0ttttt",
"ttttttt9=    Oo    @   X,wtttttt",
"ttttttttr3%          o-7tttttttt",
"ttttttttttw5:*@ooO#=<7tttttttttt",
"tttttttttttttt0889qttttttttttttt"
};
