/* XPM */
static char *_5f2ac8fc7c149c6f3b843534f40f963[] = {
/* columns rows colors chars-per-pixel */
"16 16 130 2 ",
"   c #FE0000",
".  c red",
"X  c #FE0100",
"o  c #FF0100",
"O  c #FE0400",
"+  c #FE0500",
"@  c #FE0601",
"#  c #FE0701",
"$  c #FF0701",
"%  c #FD0901",
"&  c #FE0901",
"*  c #FD0A01",
"=  c #FD0B01",
"-  c #FF0A01",
";  c #FD0C01",
":  c #FD0D01",
">  c #FE0C01",
",  c #FD0E01",
"<  c #FF0E01",
"1  c #FF0F02",
"2  c #FD1002",
"3  c #FD1102",
"4  c #FE1202",
"5  c #FF1202",
"6  c #FF1402",
"7  c #FF1702",
"8  c #FF1803",
"9  c #FD1A03",
"0  c #FF1A03",
"q  c #FD1D03",
"w  c #FF1C03",
"e  c #FF1D03",
"r  c #FD1E03",
"t  c #FD1F03",
"y  c #FF1E03",
"u  c #FF1F03",
"i  c #FD2104",
"p  c #FF2104",
"a  c #FD2304",
"s  c #FF2204",
"d  c #FF2304",
"f  c #FD2404",
"g  c #FF2504",
"h  c #FD2604",
"j  c #FF2604",
"k  c #FD2904",
"l  c #FE2804",
"z  c #FD2B05",
"x  c #FE2A04",
"c  c #FF2B04",
"v  c #FD2D05",
"b  c #FD2E05",
"n  c #FE2E05",
"m  c #FF2E05",
"M  c #FE2F05",
"N  c #FD3005",
"B  c #FD3205",
"V  c #FF3205",
"C  c #FD3405",
"Z  c #FD3605",
"A  c #FD3506",
"S  c #FD3606",
"D  c #FD3706",
"F  c #FE3906",
"G  c #FD3A06",
"H  c #FD3B06",
"J  c #FE3B06",
"K  c #FD3C05",
"L  c #FD3D06",
"P  c #FD4106",
"I  c #FC4306",
"U  c #FD4207",
"Y  c #FD4507",
"T  c #FD4607",
"R  c #FE4607",
"E  c #FD4B07",
"W  c #FD4808",
"Q  c #FD4908",
"!  c #FE4A08",
"~  c #FD4C08",
"^  c #FD4D08",
"/  c #FC4E08",
"(  c #FC5108",
")  c #FD5208",
"_  c #FE5509",
"`  c #FD5608",
"'  c #FE5609",
"]  c #FD5909",
"[  c #FD5A09",
"{  c #FD5B09",
"}  c #FE5A08",
"|  c #FD5D0A",
" . c #FD6309",
".. c #FC630B",
"X. c #FD650A",
"o. c #FC690B",
"O. c #FD6D0B",
"+. c #FD6E0B",
"@. c #FC710C",
"#. c #FC730C",
"$. c #FC770C",
"%. c #FC770D",
"&. c #FC780D",
"*. c #FC7A0D",
"=. c #FC810D",
"-. c #FC820E",
";. c #FC830E",
":. c #FB870E",
">. c #FC840E",
",. c #FC850E",
"<. c #FC860E",
"1. c #FC870E",
"2. c #FC880E",
"3. c #FC890E",
"4. c #FC8E0F",
"5. c #FB910F",
"6. c #FC900F",
"7. c #FD900F",
"8. c #FD940F",
"9. c #FB9710",
"0. c #FB9810",
"q. c #FB9B10",
"w. c #FC9910",
"e. c #FB9C10",
"r. c #FB9E11",
"t. c #FB9F11",
"y. c #FBA111",
"u. c #FBA211",
"i. c #FCA011",
"p. c None",
/* pixels */
"p.p.p.p.p.p.p.p.p.p.p.p.p.p.p.p.",
"p.p.p.p.p.p.X.P ~ R O.p.p.p.p.p.",
"p.p.p.p.| r . ; M 5 # j O.p.p.p.",
"p.p.p.Y . . & A 9 A & . . ] p.p.",
"p.p.` . & ;   i N i . , 5 . O.p.",
"p.8.& M #.&     q h . & #.A 9 p.",
"p.~ # q.Q . . * q h x . P u.5 X.",
"p.x M i.; . . #.5.h x # # w.J L ",
"p.s Q ,.  . , Q 5.-...    &.` A ",
"p.x Q ,.  G o.h ( t.t./ , -.` K ",
"p.Y M q.Y A b 3 q A $.5.Q 9.J ] ",
"p.,.; ,.9.b . . . . * k -.,.j p.",
"p.p.Y 0 t.3.j # ; # u ,.u.u ] p.",
"p.p.p.V 0 3.t.#.Y $.e.3.s Y p.p.",
"p.p.p.p.E s u 0 . 6 u c ] p.p.p.",
"p.p.p.p.p.7.( A A L { p.p.p.p.p."
};
